<!DOCTYPE svg PUBLIC "-//W3C//DTD SVG 1.1//EN" "http://www.w3.org/Graphics/SVG/1.1/DTD/svg11.dtd">
<!-- Uploaded to: SVG Repo, www.svgrepo.com, Transformed by: SVG Repo Mixer Tools -->
<svg fill="#ffffff" height="800px" width="800px" version="1.1" id="Capa_1" xmlns="http://www.w3.org/2000/svg" xmlns:xlink="http://www.w3.org/1999/xlink" viewBox="0 0 431.814 431.814" xml:space="preserve">
<g id="SVGRepo_bgCarrier" stroke-width="0"/>
<g id="SVGRepo_tracerCarrier" stroke-linecap="round" stroke-linejoin="round"/>
<g id="SVGRepo_iconCarrier"> <g> <path d="M264.384,250.581c-0.644,0.534-4.39,2.527-10.938,2.527c-5.938,0-9.933-1.702-10.938-2.526 c-9.607-7.881-23.786-6.481-31.666,3.127c-7.881,9.608-6.48,23.785,3.127,31.666c4.754,3.9,10.566,6.988,17.008,9.152 c-0.021,0.393-0.031,0.788-0.031,1.186c0,48.446-38.232,82.281-92.973,82.281C83.232,377.994,45,344.158,45,295.713V31.32 c0-12.426-10.074-22.5-22.5-22.5S0,18.894,0,31.32v264.393c0,36.785,14.75,69.906,41.533,93.263 c25.154,21.937,59.404,34.018,96.44,34.018s71.286-12.081,96.439-34.018c26.783-23.357,41.533-56.479,41.533-93.263 c0-0.397-0.011-0.792-0.031-1.183c6.516-2.188,12.385-5.325,17.173-9.29c9.57-7.926,10.903-22.11,2.978-31.68 C288.14,243.989,273.958,242.655,264.384,250.581z"/> <path d="M331.163,40.026H175.729c-55.499,0-100.651,45.152-100.651,100.651c0,55.5,45.152,100.651,100.651,100.651h9.636 c6.684,0,10.859-4.166,12.264-6.612l23.069-39.859c1.558-2.692,6.424-5.237,10.013-5.237h45.47c3.589,0,8.455,2.545,10.014,5.237 l21.479,37.114c1.741,3.586,6.508,9.357,13.959,9.357h9.529c55.499,0,100.651-45.152,100.651-100.651 C431.814,85.177,386.662,40.026,331.163,40.026z"/> </g> </g>
</svg>